<?xml version="1.0" encoding="UTF-8" standalone="no"?>
<svg
   viewBox="0 0 233.37119 222.94102"
   version="1.1"
   id="svg834"
   sodipodi:docname="datazoo_no_text.svg"
   inkscape:version="1.1.2 (b8e25be8, 2022-02-05)"
   inkscape:export-filename="/Users/karel/bitmap.png"
   inkscape:export-xdpi="300"
   inkscape:export-ydpi="300"
   width="233.37119"
   height="222.94102"
   xmlns:inkscape="http://www.inkscape.org/namespaces/inkscape"
   xmlns:sodipodi="http://sodipodi.sourceforge.net/DTD/sodipodi-0.dtd"
   xmlns="http://www.w3.org/2000/svg"
   xmlns:svg="http://www.w3.org/2000/svg">
  <defs
     id="defs838" />
  <sodipodi:namedview
     id="namedview836"
     pagecolor="#ffffff"
     bordercolor="#666666"
     borderopacity="1.0"
     inkscape:pageshadow="2"
     inkscape:pageopacity="0.0"
     inkscape:pagecheckerboard="0"
     showgrid="false"
     inkscape:snap-bbox="true"
     inkscape:zoom="2.266117"
     inkscape:cx="221.74495"
     inkscape:cy="155.33179"
     inkscape:window-width="1920"
     inkscape:window-height="954"
     inkscape:window-x="0"
     inkscape:window-y="25"
     inkscape:window-maximized="0"
     inkscape:current-layer="svg834"
     height="290.57001px"
     fit-margin-top="0"
     fit-margin-left="0"
     fit-margin-right="0"
     fit-margin-bottom="0" />
  <g
     fill-rule="evenodd"
     id="g832"
     style="display:inline"
     inkscape:export-filename="/Users/karel/Downloads/g832.png"
     inkscape:export-xdpi="300"
     inkscape:export-ydpi="300"
     inkscape:label="logo"
     transform="translate(-82.454271,-33.647539)">
    <path
       d="m 169.66,33.816 c -3.043,0.384 -6.801,1.324 -14.821,3.708 -1.055,0.314 -3.88,1.557 -6.278,2.764 -2.397,1.207 -4.751,2.303 -5.231,2.436 -1.073,0.297 -6.872,3.357 -9.241,4.875 -17.337,11.113 -30.412,23.635 -36.25,34.719 -0.662,1.256 -2.233,3.924 -3.492,5.929 -2.671,4.252 -4.516,7.861 -5.675,11.099 -2.425,6.777 -3.017,8.623 -4.1,12.773 -2.31,8.856 -2.567,17.231 -0.638,20.831 4.375,8.169 15.161,10.472 25.704,5.491 6.186,-2.923 6.584,-3.691 6.849,-13.245 0.114,-4.124 0.385,-8.047 0.602,-8.718 0.217,-0.672 0.721,-2.293 1.119,-3.604 1.299,-4.27 5.033,-11.343 9.737,-18.443 8.672,-13.089 16.53,-19.675 30.062,-25.195 2.1,-0.857 7.943,-2.522 15.987,-4.556 6.21,-1.57 10.733,-7.309 12.238,-15.525 1.774,-9.687 -5.799,-16.697 -16.572,-15.339 m 1.217,18.118 c 1.249,1.04 2.323,2.021 2.387,2.18 0.252,0.627 -2.09,0.239 -3.673,-0.608 -2.262,-1.212 -3.023,-1.079 -11.614,2.036 -13.576,4.923 -30.291,18.738 -39.169,32.374 -5.305,8.147 -10.564,19.825 -11.243,24.966 -0.162,1.228 -0.499,2.055 -1.05,2.572 l -0.812,0.763 -1.5,-0.885 c -4.255,-2.508 -4.288,-3.004 -0.903,-13.327 3.373,-10.283 11.421,-22.758 20.979,-32.519 4.763,-4.864 5.453,-5.257 6.314,-3.592 0.964,1.866 0.737,2.458 -0.945,2.458 -4.614,0 -21.355,23.37 -24.755,34.556 -1.876,6.174 -2.103,7.967 -1.165,9.231 0.768,1.037 1.234,0.284 3.141,-5.077 4.533,-12.744 10.886,-23.42 19.614,-32.956 2.106,-2.301 4.022,-4.545 4.257,-4.986 0.235,-0.441 0.771,-0.933 1.191,-1.095 0.419,-0.161 2.608,-1.642 4.863,-3.29 4.876,-3.565 9.791,-6.545 13.86,-8.403 1.87375,-0.859406 3.73982,-1.73544 5.598,-2.628 1.449,-0.701 3.489,-1.552 4.534,-1.892 1.045,-0.34 2.998,-1.046 4.34,-1.567 1.828,-0.711 2.572,-0.855 2.961,-0.575 0.286,0.205 1.542,1.224 2.79,2.264 m 20.405,22.383 c -9.813,1.86 -12.175,2.805 -13.183,5.274 l -0.673,1.648 2.116,4.106 c 2.527,4.903 4.016,7.918 5.981,12.11 3.434,7.323 3.085,7.166 15.888,7.166 11.327,0 12.319,-0.602 15.954,-9.687 0.323,-0.808 1.044,-2.099 1.601,-2.868 2.404,-3.319 3.932,-9.18 3.131,-12.011 -0.662,-2.34 -2.362,-3.21 -10.937,-5.598 -1.909,-0.531 -17.244,-0.639 -19.878,-0.14 m -31.038,11.474 c -11.547,3.108 -24.893,19.029 -27.915,33.302 -0.325,1.535 -0.722,3.418 -0.882,4.185 -2.209,10.567 5.514,18.682 16.096,16.913 5.216,-0.872 6.413,-2.092 10.832,-11.042 4.593,-9.299 11.305,-15.672 19.15,-18.181 0.949,-0.304 1.722,-0.718 1.718,-0.921 -0.02,-0.962 -1.556,-3.478 -4.121,-6.753 -3.735,-4.768 -6.941,-11.118 -7.253,-14.366 -0.38,-3.952 -2.048,-4.639 -7.625,-3.137 m 47.821,4.375 c 0.407,0.622 0.472,1 0.216,1.257 -0.492,0.492 -6.98,0.798 -10.31,0.486 l -2.679,-0.251 v -2.382 h 12.19 l 0.583,0.89 m -47.733,15.259 c 1.765,1.191 1.747,1.763 -0.117,3.824 -3.246,3.586 -6.794,10.014 -9.045,16.383 -0.525,1.487 -1.154,2.703 -1.396,2.703 -0.494,0 -0.962,-0.954 -0.687,-1.4 0.099,-0.159 0.337,-1.126 0.529,-2.148 0.446,-2.372 3.49,-8.54 6.41,-12.987 2.21,-3.366 2.445,-4.041 1.407,-4.041 -1.121,0 -5.571,5.661 -7.605,9.675 -0.496,0.979 -1.31,2.38 -1.808,3.114 -2.059,3.035 -2.341,0.352 -0.323,-3.071 0.67401,-1.14161 1.33936,-2.28831 1.996,-3.44 2.371,-4.21 7.787,-10.027 8.932,-9.594 0.315,0.119 1.083,0.56 1.707,0.982 m 14.423,13.847 c -5.058,1.819 -5.916,3.045 -9.65,13.779 -1.58,4.543 1.782,8.502 6.811,8.02 4.044,-0.388 6.091,-1.846 8.978,-6.392 0.86137,-1.33317 1.77029,-2.635 2.725,-3.903 0.805,-1.055 1.892,-2.737 2.415,-3.739 l 0.951,-1.821 -1.111,-1.943 c -0.612,-1.068 -1.568,-2.279 -2.124,-2.691 -0.557,-0.411 -1.012,-1.032 -1.012,-1.38 0,-0.929 -5.337,-0.882 -7.983,0.07 m -7.068,34.144 c -5.703,1.841 -6.099,5.931 -1.329,13.746 7.966,13.052 10.066,14.758 18.298,14.866 2.109,0.027 6.19,0.194 9.067,0.371 12.673,0.777 25.399,-0.026 28.282,-1.784 3.471,-2.117 11.257,-12.532 12.826,-17.157 2.097,-6.184 -1.541,-10.306 -8.922,-10.107 -2.569,0.069 -6.205,1.739 -6.205,2.85 0,0.137 -0.303,0.574 -0.672,0.971 -0.37,0.397 -1.251,1.878 -1.958,3.292 -1.901,3.802 -4.509,8.03 -5.564,9.022 l -0.929,0.871 -10.325,0.103 c -7.2,0.071 -10.619,-0.019 -11.293,-0.299 -1.87,-0.774 -5.729,-5.626 -7.847,-9.866 -2.816,-5.638 -8.404,-8.501 -13.429,-6.879 m -72.831,1.423 c -0.288,0.186 -0.95,0.34 -1.472,0.343 -4.443,0.025 -9.78,5.931 -10.718,11.862 -0.685,4.33 0.397,15.417 1.744,17.868 0.183,0.333 0.333,0.843 0.333,1.132 0,0.54 1.195,4.334 1.759,5.586 0.173,0.384 0.631,1.524 1.018,2.534 1.003,2.615 3.767,7.937 5.318,10.238 0.726,1.078 1.321,2.108 1.321,2.288 0,3.136 15.23,20.851 23.016,26.771 7.694,5.85 12.802,9.379 15.519,10.721 0.959,0.473 2.685,1.341 3.836,1.928 2.674,1.364 13.576,6.026 14.092,6.026 0.214,0 0.663,0.144 0.996,0.32 0.918,0.486 6.196,2.104 8.226,2.523 0.987,0.204 2.894,0.606 4.236,0.894 3.681,0.788 10.087,0.962 12.479,0.337 3.175,-0.829 7.673,-4.775 9.171,-8.047 4.188,-9.149 -1.203,-21.297 -10.665,-24.033 -1.055,-0.305 -3.095,-0.891 -4.533,-1.303 -13.128,-3.755 -24.914,-9.496 -31.077,-15.137 -1.39849,-1.27631 -2.81496,-2.53277 -4.249,-3.769 -2.481,-2.116 -9.707,-11.723 -12.147,-16.148 -1.03,-1.869 -2.339,-3.884 -2.908,-4.478 -1.917,-2.003 -2.924,-5.754 -3.488,-13.001 -0.693,-8.909 -3.751,-12.728 -11.519,-14.388 -1.151,-0.246 -2.684,-0.665 -3.407,-0.932 -1.5,-0.552 -6.096,-0.643 -6.881,-0.135 m 46.856,0.377 c -6.279,0.79 -10.587,5.755 -10.587,12.2 0,4.063 3.224,12.783 6.863,18.564 2.53,4.019 9.63,11.821 12.284,13.497 0.455,0.288 1.237,0.851 1.738,1.251 7.276,5.818 14.222,8.862 20.222,8.862 1.42,0 1.78,0.126 1.956,0.681 0.299,0.94 3.308,3.084 5.403,3.85 1.641,0.6 2.864,0.845 9.075,1.817 11.508,1.801 30.273,-0.329 33.567,-3.811 1.432,-1.514 3.718,-2.537 5.668,-2.537 6.46,0 21.151,-7.461 18.94,-9.618 -0.636,-0.62 -5.076,-2.936 -5.629,-2.936 -0.572,0 -4.701,-4.12 -4.967,-4.955 -0.13266,-0.36143 -0.46937,-0.60786 -0.854,-0.625 -0.362,0 -0.783,-0.213 -0.936,-0.474 -0.44,-0.747 -5.067,-3.986 -6.038,-4.226 -0.628,-0.155 -1.813,0.225 -4.184,1.343 -3.724,1.755 -5.671,2.349 -13.597,4.143 -2.328,0.528 -17.613,0.515 -20.754,-0.017 -2.813,-0.476 -3.888,-0.241 -4.178,0.915 -0.126,0.504 -0.686,1.626 -1.244,2.493 -0.558,0.867 -1.448,2.44 -1.979,3.495 -1.385,2.756 -1.688,2.725 -8.7,-0.886 -7.978,-4.108 -9.087,-4.83 -15.013,-9.777 -5.249,-4.381 -14.143,-24.734 -10.808,-24.734 0.486,0 0.982,1.084 2.313,5.057 2.963,8.841 5.743,14.075 9.586,18.047 1.08575,1.26078 7.45572,5.73768 11.08722,7.89097 1.89495,1.12361 4.37873,2.88223 6.65125,3.04274 2.35459,0.16631 4.47191,-1.29396 4.86014,-1.7486 0.74268,-0.86976 1.86557,-3.57427 -0.90896,-5.74732 -3.39277,-2.65727 -14.1319,-8.19901 -14.71865,-9.65379 -1.669,-1.548 -8.504,-12.336 -8.504,-13.423 0,-0.264 -0.392,-1.368 -0.872,-2.452 -0.479,-1.084 -0.872,-2.156 -0.872,-2.382 0,-4.29 -7.795,-8.036 -14.87,-7.146 m -32.352,25.84 c 1.6,3.156 2.509,6.128 3.341,10.92 1.325,7.625 15.774,23.748 27.936,31.171 7.249,4.425 20.165,9.618 26.582,10.688 1.963,0.328 3.662,0.946 3.662,1.332 0,0.413 -7.092,0.068 -8.544,-0.415 -0.576,-0.191 -2.93,-0.939 -5.232,-1.662 -4.804,-1.509 -10.13,-3.755 -13.009,-5.487 -1.2598,-0.74991 -2.54312,-1.4596 -3.848,-2.128 -1.025,-0.513 -2.516,-1.532 -3.313,-2.264 -0.798,-0.733 -3.256,-2.551 -5.462,-4.04 -5.961,-4.026 -10.618,-9.198 -16.913,-18.786 l -3.19487,-6.62661 -2.36081,-10.15687 -1.12434,-1.7357 -2.13087,-0.32404 c -1.64113,0.51519 -2.69721,0.64729 -3.85407,4.31623 -1.74804,4.38499 4.35396,10.28599 5.72496,12.98999 9.254,18.262 34.502,36.759 56.361,41.29 1.397,0.29 3.235,0.676 4.083,0.858 1.615,0.346 2.817,1.17 2.817,1.932 0,0.767 -0.59,0.866 -2.154,0.36 -0.83,-0.267 -2.999,-0.843 -4.821,-1.279 -3.266,-0.781 -5.514,-1.501 -12.38,-3.964 -4.488,-1.609 -16.193,-7.528 -18.589,-9.399 -1.10598,-0.8602 -2.23093,-1.69574 -3.374,-2.506 -0.839,-0.583 -2.314,-1.8 -3.28,-2.702 -0.965,-0.903 -1.92,-1.642 -2.123,-1.642 -0.717,0 -7.793,-7.549 -10.421,-11.119 -1.467,-1.992 -3.39,-4.503 -4.274,-5.58 -0.884,-1.077 -1.876,-2.483 -2.205,-3.124 -0.329,-0.64 -1.503,-2.445 -2.61,-4.01 -1.107,-1.565 -2.452,-3.708 -2.989,-4.763 -0.537,-1.055 -1.218,-2.386 -1.514,-2.957 -1.285,-2.477 -0.642,-6.588 1.306,-8.351 0.45,-0.407 5.593,-2.361 6.911,-2.625 0.045,-0.009 0.493,0.796 0.996,1.789"
       fill="#1ec5b5"
       id="path824"
       style="display:inline"
       sodipodi:nodetypes="cccccccccccccccccccccccccccccccscccssccccsccccccccscsccccscsccccccccscccccccscccscccccccccccccccsccccccccscscccccccccsssccssccsccccccccccccscccscccscsscscsccccccccscccsccsssscscscccccscccccccccccccccsccccccscscssccsc"
       inkscape:export-filename="/Users/karel/Downloads/path826.png"
       inkscape:export-xdpi="300"
       inkscape:export-ydpi="300" />
    <path
       d="m 223.21,34.224 c -6.824,1.131 -9.601,4.855 -9.586,12.855 l 0.009,4.708 1.584,3.313 c 1.842,3.854 4.242,6.948 6.345,8.18 1.688,0.99 8.55,3.302 11.392,3.839 2.511,0.475 6.968,2.585 12.968,6.141 18.791,11.137 34.37,34.864 34.902,53.157 0.195,6.695 1.204,8.439 6.813,11.774 5.768,3.43 15.006,3.694 20.733,0.592 6.34,-3.434 9.147,-15.754 5.708,-25.055 -1.099,-2.974 -1.961,-5.89 -1.961,-6.636 0,-0.324 -0.124,-0.737 -0.276,-0.919 -0.151,-0.183 -0.661,-1.509 -1.133,-2.947 -0.472,-1.439 -0.947,-2.694 -1.055,-2.79 -0.108,-0.096 -0.565,-1.195 -1.016,-2.441 -0.923,-2.551 -2.239,-5.323 -3.144,-6.626 -0.334,-0.48 -1.2,-1.971 -1.926,-3.313 C 298.012,77.775 286.82,64.22 279.67,59.111 c -1.61,-1.151 -3.718,-2.805 -4.683,-3.675 -5.962,-5.377 -20.581,-14.285 -23.443,-14.285 -0.179,0 -1.139,-0.392 -2.133,-0.872 -0.994,-0.48 -1.967,-0.872 -2.163,-0.872 -0.195,0 -1.648,-0.521 -3.227,-1.158 -4.872,-1.964 -15.003,-4.472 -17.701,-4.381 -0.667,0.023 -2.067,0.182 -3.11,0.356 m 7.302,14.303 c 2.543,0.732 8.161,2.56 10.986,3.575 3.934,1.414 9.811,4.178 11.098,5.219 0.801,0.649 1.941,1.426 2.533,1.726 2.306,1.17 10.191,8.552 19.855,18.59 l 7.955,8.261 -0.794,0.643 c -1.452,1.175 -3.192,0.65 -4.56,-1.374 -1.279,-1.895 -5.973,-7.115 -6.197,-6.891 -0.106,0.106 0.126,0.545 0.516,0.976 1.251,1.383 6.385,8.257 6.385,8.549 0,0.154 0.432,0.798 0.959,1.43 l 0.959,1.148 1.046,-0.932 c 3.683,-3.281 4.707,-3.441 4.71,-0.738 0.002,2.75 5.004,11.986 8.701,16.069 2.491,2.751 2.789,3.844 1.585,5.821 -1.366,2.244 -8.434,1.851 -9.062,-0.504 -0.112,-0.422 -0.346,-1.316 -0.52,-1.987 -1.512,-5.847 -2.21,-7.229 -8.278,-16.39 -6.531,-9.861 -7.806,-11.455 -13.946,-17.437 -8.299,-8.086 -11.859,-10.785 -18.822,-14.27 -5.434,-2.719 -9.424,-4.184 -17.302,-6.355 -1.326,-0.365 -1.649,-0.597 -1.569,-1.129 0.165,-1.097 1.082,-1.448 2.598,-0.995 0.736,0.22 2.516,0.733 3.954,1.14 2.454,0.694 3.951,1.2 6.452,2.184 7.086,2.787 17.286,9.222 22.259,14.039 1.117,1.082 6.45754,6.439347 9.376,9.385 0.48284,-0.03262 -8.123,-9.418 -11.576,-12.292 -3.621,-3.012 -4.28,-3.507 -8.053,-6.037 -2.171,-1.456 -7.168,-4.028 -10.088,-5.192 -1.055,-0.421 -2.154,-0.884 -2.441,-1.03 -0.288,-0.145 -1.7,-0.614 -3.139,-1.04 -1.438,-0.427 -2.929,-0.913 -3.313,-1.08 -0.383,-0.167 -1.247,-0.402 -1.918,-0.521 -2.074,-0.368 -3.184,-0.943 -3.519,-1.826 -0.632,-1.662 -0.311,-1.737 3.17,-0.735 m 3.469,36.948 c -0.258,0.482 -0.341,1.502 -0.219,2.688 0.464,4.496 -1.953,9.616 -7.312,15.486 -4.25,4.655 -4.173,4.334 -1.43,5.919 2.228,1.287 7.543,6.184 9.771,9.002 1.485,1.877 2.969,4.448 6.36,11.02 1.396,2.704 2.934,5.545 3.419,6.313 4.296,6.804 18.464,6.001 21.061,-1.194 0.261,-0.725 0.743,-2.024 1.071,-2.887 0.762,-2.009 0.845,-10.436 0.129,-13.077 -1.53,-5.64 -4.231,-11.715 -7.134,-16.042 -5.725,-8.534 -12.678,-14.114 -20.989,-16.846 -3.702,-1.216 -4.256,-1.261 -4.727,-0.382 m 48.224,5.559 c -1.394,0.56 -1.195,2.462 0.395,3.782 0.81,0.672 3.31,5.762 4.815,9.805 1.613,4.329 2.416,5.231 4.656,5.231 2.942,0 2.84,-1.371 -0.446,-6.041 -3.022,-4.295 -3.669,-5.376 -5.15,-8.606 -2.193,-4.78 -2.356,-4.94 -4.27,-4.171 m -37.684,17.947 c 5.181,7.637 9.509,19.054 7.657,20.198 -0.241,0.15 -0.393,-0.026 -0.393,-0.455 0,-3.352 -5.396,-14.429 -9.305,-19.102 -1.174,-1.403 -1.506,-2.081 -1.506,-3.077 0,-2.065 0.924,-1.43 3.547,2.436 m -28.307,7.787 c -1.077,0.513 -2.865,0.582 -15.182,0.582 -15.466,0 -17.09184,-0.9321 -18.30184,1.4089 -0.484,0.936 1.17054,2.2043 1.60654,2.7083 0.275,0.318 1.05065,1.36455 1.57465,2.27555 0.525,0.911 0.82005,1.61545 1.10305,1.61545 0.283,0 1.9716,0.5168 3.1566,1.3468 2.699,1.89 6.818,2.472 14.928,2.11 l 5.012,-0.224 1.744,1.894 c 0.959,1.042 2.751,3.349 3.982,5.127 5.257,7.591 14.235,8.726 19.294,2.439 l 1.021,-1.27 -0.551,-2.152 c -1.607,-6.273 -8.323,-16.073 -12.232,-17.848 -1.793,-0.815 -5.46,-0.821 -7.155,-0.013 m 7.382,13.32 c 1.8,4.415 1.829,4.524 1.21,4.524 -1.052,0 -4.043,-6.3 -3.573,-7.526 0.406,-1.058 1.033,-0.262 2.363,3.002 m 27.612,25.463 c -5.985,1.184 -8.483,4.556 -11.095,14.981 -1.071,4.273 -1.228,4.548 -4.349,7.614 -3.103,3.049 -8.10707,7.4929 -7.66149,8.47542 1.291,1.662 4.96774,3.96667 7.5676,5.03238 0.33951,1.16886 4.34889,5.3432 5.56089,5.3722 0.56,0.013 4.973,2.35 5.74,3.039 0.533,0.479 0.69,0.465 1.57,-0.141 0.537,-0.371 1.527,-0.893 2.198,-1.161 7.381,-2.947 17.595,-23.287 16.542,-32.939 -0.81,-7.424 -7.822,-11.906 -16.073,-10.273 m 42.6,0.183 c -0.959,0.285 -2.371,0.697 -3.139,0.916 -4.073,1.161 -7.218,3.326 -8.4,5.782 -0.659,1.369 -0.87,2.619 -1.703,10.119 -0.283,2.55 -0.755,5.341 -1.047,6.203 -0.293,0.862 -0.532,1.717 -0.532,1.901 0,1.694 -1.00968,5.92821 -5.75068,12.35921 -6.382,8.659 -26.19932,24.43379 -34.00532,26.27879 -0.863,0.204 -2.433,0.606 -3.488,0.894 -1.055,0.287 -3.173,0.776 -4.708,1.087 -13.071,2.646 -18.26,8.272 -17.851,19.354 0.287,7.751 2.35,11.373 8.01,14.059 7.963,3.78 29.529,-1.294 46.031,-10.829 l 6.253,-3.615 c 13.639,-7.892 25.689,-22.507 34.138,-41.402 1.173,-2.623 2.335,-5.162 2.582,-5.641 0.664,-1.292 1.43,-3.397 2.092,-5.754 0.323,-1.151 1.018,-3.27 1.545,-4.708 3.365,-9.2 2.396,-18.726 -2.396,-23.569 -3.503,-3.54 -11.823,-5.161 -17.631,-3.435 m -42.028,15.31 c -1.66,5.617 -4.026,10.109 -6.62,12.565 l -1.104,1.047 0.522,-1.395 c 0.287,-0.768 0.608,-1.788 0.713,-2.267 0.105,-0.48 0.979,-2.072 1.943,-3.538 0.964,-1.466 2.215,-3.82 2.779,-5.231 0.48164,-1.20664 0.97065,-2.41033 1.467,-3.611 l 0.44,-1.046 0.137,1.035 c 0.076,0.57 -0.049,1.668 -0.277,2.441 m 39.703,8.028 c 0.063,0.544 -0.04,1.317 -0.231,1.717 -0.19,0.4 -0.611,1.591 -0.936,2.646 -1.979,6.435 -2.61668,11.69721 -7.11768,18.85621 -9.672,15.385 -35.40032,33.02579 -53.99332,35.34279 l -1.831,0.228 v -1.074 c 0,-1.91 2.688,-3.484 5.95,-3.484 0.376,0 2.448,-0.462 4.603,-1.026 20.085,-5.261 39.884,-22.29 47.867,-41.171 1.214,-2.869 3.655,-9.755 3.655,-10.307 0,-2.083 1.812,-3.622 2.034,-1.728 m -42.028,57.701 c -1.398,0.853 -3.617,1.843 -5.865,2.618 -0.959,0.331 -1.999,0.733 -2.311,0.895 -0.312,0.162 -1.17158,0.28133 -1.835,0.532 -0.697,0.26336 -0.31666,0.15937 -1.439,0.516 -0.49208,0.19473 -0.839,0.387 -1.653,0.52 -1.517,0.246 -5.014,1.32 -5.331,1.636 -0.32,0.32 -1.904,-0.145 -1.904,-0.56 0,-0.223 0.746,-0.611 1.657,-0.861 0.911,-0.25 2.441,-0.669 3.4,-0.93 5.40739,-0.36629 23.41711,-12.32372 35.15923,-21.16819 4.92088,-3.70653 9.20162,-7.00561 10.09505,-8.40933 0.9166,-0.49717 3.97143,-3.62887 6.43986,-7.98298 3.47615,-6.13163 6.23775,-14.74132 7.12331,-20.30867 0.44017,-2.76728 1.71094,-3.8768 2.50325,-3.67287 1.49683,0.38528 -4.44219,25.91727 -14.22387,33.67621 -13.54122,10.74106 -30.65352,23.15613 -31.81583,23.49983"
       fill="#e5994a"
       id="path826"
       sodipodi:nodetypes="cccccccccscsccscccccssscccccccccccscsccccscccccccscccsccccccccccccccccccccccccccscccccscsccscccscccccccccccsccccccccccccccccccscscccccccccccccccccscccccccccccssccscccsscccsscscssssc"
       style="display:inline"
       inkscape:export-filename="/Users/karel/Downloads/path826.png"
       inkscape:export-xdpi="300"
       inkscape:export-ydpi="300" />
  </g>
</svg>
